<svg width="1280" height="640" viewBox="0 0 1280 640" xmlns="http://www.w3.org/2000/svg">
  <defs>
    <linearGradient id="bgGradient" x1="0%" y1="0%" x2="100%" y2="100%">
      <stop offset="0%" style="stop-color:#0a0e27;stop-opacity:1" />
      <stop offset="50%" style="stop-color:#16213e;stop-opacity:1" />
      <stop offset="100%" style="stop-color:#1a1a3e;stop-opacity:1" />
    </linearGradient>
    
    <linearGradient id="accentGradient" x1="0%" y1="0%" x2="100%" y2="100%">
      <stop offset="0%" style="stop-color:#00ff88;stop-opacity:1" />
      <stop offset="50%" style="stop-color:#00d4ff;stop-opacity:1" />
      <stop offset="100%" style="stop-color:#a855f7;stop-opacity:1" />
    </linearGradient>
    
    <filter id="glow">
      <feGaussianBlur stdDeviation="4" result="coloredBlur"/>
      <feMerge>
        <feMergeNode in="coloredBlur"/>
        <feMergeNode in="SourceGraphic"/>
      </feMerge>
    </filter>
    
    <filter id="strongGlow">
      <feGaussianBlur stdDeviation="8" result="coloredBlur"/>
      <feMerge>
        <feMergeNode in="coloredBlur"/>
        <feMergeNode in="SourceGraphic"/>
      </feMerge>
    </filter>
  </defs>
  
  <!-- Background -->
  <rect width="1280" height="640" fill="url(#bgGradient)"/>
  
  <!-- Grid pattern -->
  <g opacity="0.1">
    <defs>
      <pattern id="grid" width="40" height="40" patternUnits="userSpaceOnUse">
        <path d="M 40 0 L 0 0 0 40" fill="none" stroke="#00d4ff" stroke-width="0.5"/>
      </pattern>
    </defs>
    <rect width="1280" height="640" fill="url(#grid)"/>
  </g>
  
  <!-- Hexagonal network background -->
  <g opacity="0.15">
    <!-- Left side hexagons -->
    <polygon points="100,100 150,75 200,100 200,150 150,175 100,150" 
             fill="none" stroke="#00d4ff" stroke-width="2"/>
    <polygon points="100,250 150,225 200,250 200,300 150,325 100,300" 
             fill="none" stroke="#00ff88" stroke-width="2"/>
    <polygon points="100,400 150,375 200,400 200,450 150,475 100,450" 
             fill="none" stroke="#a855f7" stroke-width="2"/>
    
    <!-- Right side hexagons -->
    <polygon points="1080,150 1130,125 1180,150 1180,200 1130,225 1080,200" 
             fill="none" stroke="#a855f7" stroke-width="2"/>
    <polygon points="1080,300 1130,275 1180,300 1180,350 1130,375 1080,350" 
             fill="none" stroke="#00d4ff" stroke-width="2"/>
    <polygon points="1080,450 1130,425 1180,450 1180,500 1130,525 1080,500" 
             fill="none" stroke="#00ff88" stroke-width="2"/>
  </g>
  
  <!-- Quantum particles animation -->
  <g opacity="0.6">
    <circle cx="150" cy="100" r="6" fill="#00ff88" filter="url(#glow)">
      <animate attributeName="opacity" values="0.3;1;0.3" dur="3s" repeatCount="indefinite"/>
    </circle>
    <circle cx="200" cy="250" r="6" fill="#00d4ff" filter="url(#glow)">
      <animate attributeName="opacity" values="1;0.3;1" dur="3s" repeatCount="indefinite"/>
    </circle>
    <circle cx="150" cy="400" r="6" fill="#a855f7" filter="url(#glow)">
      <animate attributeName="opacity" values="0.3;1;0.3" dur="3s" repeatCount="indefinite"/>
    </circle>
    <circle cx="1130" cy="150" r="6" fill="#a855f7" filter="url(#glow)">
      <animate attributeName="opacity" values="1;0.3;1" dur="3s" repeatCount="indefinite"/>
    </circle>
    <circle cx="1130" cy="300" r="6" fill="#00d4ff" filter="url(#glow)">
      <animate attributeName="opacity" values="0.3;1;0.3" dur="3s" repeatCount="indefinite"/>
    </circle>
    <circle cx="1180" cy="450" r="6" fill="#00ff88" filter="url(#glow)">
      <animate attributeName="opacity" values="1;0.3;1" dur="3s" repeatCount="indefinite"/>
    </circle>
  </g>
  
  <!-- Main content -->
  <g transform="translate(640, 200)">
    <!-- Logo symbol -->
    <g transform="translate(-420, 0)">
      <polygon points="0,-50 43,-25 43,25 0,50 -43,25 -43,-25" 
               fill="url(#accentGradient)" stroke="#00ff88" stroke-width="3" 
               filter="url(#glow)" opacity="0.9"/>
      <text x="0" y="20" font-family="'Helvetica Neue', Arial, sans-serif" 
            font-size="60" font-weight="900" fill="#0a0e27" text-anchor="middle">H</text>
      <circle cx="25" cy="-15" r="14" fill="#0a0e27" stroke="#00ff88" stroke-width="2"/>
      <text x="25" y="-6" font-family="Arial, sans-serif" font-size="14" 
            font-weight="bold" fill="#00ff88" text-anchor="middle">3</text>
    </g>
    
    <!-- Title -->
    <text x="-280" y="15" font-family="'Helvetica Neue', Arial, sans-serif" 
          font-size="72" font-weight="900" fill="#ffffff" letter-spacing="3">
      HYPERLAYER
    </text>
  </g>
  
  <!-- Subtitle -->
  <text x="640" y="280" font-family="'Helvetica Neue', Arial, sans-serif" 
        font-size="28" fill="#00d4ff" text-anchor="middle" letter-spacing="1">
    Revolutionary Layer 3 Blockchain Protocol
  </text>
  
  <!-- Features -->
  <g transform="translate(640, 360)">
    <!-- Feature badges -->
    <g transform="translate(-350, 0)">
      <rect x="-70" y="-20" width="140" height="40" rx="20" 
            fill="#1a1a3e" stroke="#00ff88" stroke-width="2"/>
      <text x="0" y="8" font-family="Arial, sans-serif" font-size="16" 
            font-weight="bold" fill="#00ff88" text-anchor="middle">⚛️ Quantum-Ready</text>
    </g>
    
    <g transform="translate(-120, 0)">
      <rect x="-55" y="-20" width="110" height="40" rx="20" 
            fill="#1a1a3e" stroke="#00d4ff" stroke-width="2"/>
      <text x="0" y="8" font-family="Arial, sans-serif" font-size="16" 
            font-weight="bold" fill="#00d4ff" text-anchor="middle">⚡ &lt;1ms Finality</text>
    </g>
    
    <g transform="translate(120, 0)">
      <rect x="-60" y="-20" width="120" height="40" rx="20" 
            fill="#1a1a3e" stroke="#a855f7" stroke-width="2"/>
      <text x="0" y="8" font-family="Arial, sans-serif" font-size="16" 
            font-weight="bold" fill="#a855f7" text-anchor="middle">🤖 AI-Optimized</text>
    </g>
    
    <g transform="translate(350, 0)">
      <rect x="-65" y="-20" width="130" height="40" rx="20" 
            fill="#1a1a3e" stroke="#00ff88" stroke-width="2"/>
      <text x="0" y="8" font-family="Arial, sans-serif" font-size="16" 
            font-weight="bold" fill="#00ff88" text-anchor="middle">📊 147K+ TPS</text>
    </g>
  </g>
  
  <!-- Stats -->
  <g transform="translate(640, 480)">
    <text x="-300" y="0" font-family="'Helvetica Neue', Arial, sans-serif" 
          font-size="18" fill="#888" text-anchor="middle">
      256 Shards
    </text>
    <text x="-100" y="0" font-family="'Helvetica Neue', Arial, sans-serif" 
          font-size="18" fill="#888" text-anchor="middle">
      Cross-Chain Native
    </text>
    <text x="100" y="0" font-family="'Helvetica Neue', Arial, sans-serif" 
          font-size="18" fill="#888" text-anchor="middle">
      Self-Healing Network
    </text>
    <text x="300" y="0" font-family="'Helvetica Neue', Arial, sans-serif" 
          font-size="18" fill="#888" text-anchor="middle">
      Post-Quantum Crypto
    </text>
  </g>
  
  <!-- Footer -->
  <g transform="translate(640, 560)">
    <text x="-200" y="0" font-family="Arial, sans-serif" font-size="14" 
          fill="#666" text-anchor="middle">
      🌐 hyperlayer3.com
    </text>
    <text x="0" y="0" font-family="Arial, sans-serif" font-size="14" 
          fill="#666" text-anchor="middle">
      🐦 @xKarazeL
    </text>
    <text x="200" y="0" font-family="Arial, sans-serif" font-size="14" 
          fill="#666" text-anchor="middle">
      📧 firataydinozcan@gmail.com
    </text>
  </g>
</svg>
